<?xml version="1.0" encoding="utf-8"?>
<!-- Generator: Adobe Illustrator 23.0.1, SVG Export Plug-In . SVG Version: 6.00 Build 0)  -->
<svg version="1.1" id="Layer_1" xmlns="http://www.w3.org/2000/svg" xmlns:xlink="http://www.w3.org/1999/xlink" x="0px" y="0px"
	 viewBox="0 0 512 512" style="enable-background:new 0 0 512 512;" xml:space="preserve">
<style type="text/css">
	.st0{fill:url(#SVGID_1_);}
	.st1{fill:url(#SVGID_2_);}
	.st2{opacity:0.4;}
	.st3{fill:#231F20;}
	.st4{fill:#FFFFFF;}
</style>
<g>
	<g>
		
			<linearGradient id="SVGID_1_" gradientUnits="userSpaceOnUse" x1="2034.8811" y1="713.3588" x2="2034.8811" y2="232.8082" gradientTransform="matrix(1 0 0 -1 -1779.2311 740.6452)">
			<stop  offset="0" style="stop-color:#FFAADB"/>
			<stop  offset="1" style="stop-color:#BA1F2F"/>
		</linearGradient>
		<path class="st0" d="M471.2,88.2c-0.2-0.4-0.4-0.7-0.6-1.1c0,0,0-0.1-0.1-0.1c-0.1-0.2-0.2-0.3-0.3-0.5c0-0.1-0.1-0.1-0.1-0.2
			c-0.6-1.1-1.2-2.2-1.8-3.2c-0.1-0.2-0.2-0.3-0.3-0.5c-0.6-1-1.2-2-1.8-3c-0.1-0.2-0.3-0.4-0.4-0.7c-0.6-0.9-1.2-1.8-1.8-2.7
			c-0.2-0.3-0.4-0.6-0.6-0.9c-0.6-0.8-1.1-1.6-1.7-2.3c-0.3-0.4-0.6-0.7-0.9-1.1c-0.5-0.7-1-1.3-1.6-2c-0.4-0.5-0.8-0.9-1.1-1.4
			c-0.5-0.6-0.9-1.1-1.4-1.7c-0.5-0.5-1-1.1-1.4-1.6c-0.4-0.4-0.8-0.9-1.2-1.3c-0.6-0.6-1.2-1.2-1.8-1.9c-0.3-0.3-0.7-0.7-1-1
			c-0.7-0.7-1.4-1.4-2.1-2.1c-0.2-0.2-0.5-0.5-0.7-0.7c-0.8-0.8-1.6-1.5-2.5-2.2c-0.1-0.1-0.3-0.3-0.5-0.4c-0.9-0.8-1.9-1.6-2.8-2.4
			c-0.1-0.1-0.2-0.1-0.2-0.2c-5.9-4.8-12.2-9-18.9-12.5C389,20.1,326.8,6.4,255.7,6.4c-70.5,0-132.4,13.5-167.1,33.7
			C66,51.7,47.8,70.5,37.2,93.6C18.4,129,6,188.6,6,256.1c0,67.6,12.4,127.1,31.2,162.5c5.7,12.3,13.5,23.5,23.1,32.9
			c9.4,9.5,20.6,17.3,32.9,23c35.4,18.8,95,31.2,162.5,31.2c67.6,0,127.1-12.4,162.5-31.2c23-10.6,41.8-28.8,53.3-51.3
			c20.3-34.7,33.8-96.5,33.8-167.1C505.3,185,491.7,122.8,471.2,88.2z"/>
		
			<linearGradient id="SVGID_2_" gradientUnits="userSpaceOnUse" x1="13191.1025" y1="3989.6453" x2="13191.1025" y2="3514.1465" gradientTransform="matrix(-1 0 0 1 13446.8027 -3400.9297)">
			<stop  offset="0" style="stop-color:#F77062"/>
			<stop  offset="1" style="stop-color:#FE3296"/>
		</linearGradient>
		<path class="st1" d="M42.5,422.1c0.2,0.4,0.4,0.7,0.6,1.1c0,0,0,0.1,0.1,0.1c0.1,0.2,0.2,0.3,0.3,0.5c0,0.1,0.1,0.1,0.1,0.2
			c0.6,1.1,1.2,2.1,1.8,3.2c0.1,0.2,0.2,0.3,0.3,0.5c0.6,1,1.2,2,1.8,2.9c0.2,0.2,0.3,0.4,0.4,0.7c0.6,0.9,1.2,1.8,1.8,2.7
			c0.2,0.3,0.4,0.6,0.6,0.9c0.6,0.8,1.1,1.5,1.7,2.3c0.3,0.4,0.6,0.7,0.8,1.1c0.5,0.7,1,1.3,1.6,2c0.4,0.5,0.7,0.9,1.1,1.4
			c0.5,0.6,0.9,1.1,1.4,1.6s0.9,1.1,1.4,1.6c0.4,0.4,0.8,0.9,1.2,1.3c0.6,0.6,1.2,1.2,1.7,1.8c0.3,0.3,0.6,0.7,1,1
			c0.7,0.7,1.4,1.4,2.1,2c0.2,0.2,0.5,0.5,0.7,0.7c0.8,0.7,1.6,1.5,2.4,2.2c0.2,0.1,0.3,0.3,0.5,0.4c0.9,0.8,1.8,1.6,2.8,2.4
			c0.1,0.1,0.2,0.1,0.2,0.2c5.8,4.7,12,8.9,18.7,12.4c34.2,20.3,95.8,33.8,166.1,33.8c69.8,0,131-13.3,165.3-33.4
			c22.4-11.4,40.4-30.1,50.9-52.9c18.6-35.1,30.8-94,30.8-160.8c0-66.9-12.2-125.8-30.9-160.8C466.2,83,458.4,72,449,62.7
			c-9.3-9.4-20.3-17.2-32.5-22.8C381.4,21.3,322.5,9,255.7,9C188.8,9,129.9,21.3,94.8,39.9C72.1,50.4,53.5,68.4,42.1,90.7
			C22,125,8.7,186.2,8.7,256C8.7,326.3,22.2,387.9,42.5,422.1z"/>
	</g>
</g>
<g>
	<g class="st2">
		<polygon class="st3" points="391.1,303.3 362.9,303.3 362.9,359.1 307.1,359.1 307.1,387.4 391.1,387.4 		"/>
		<polygon class="st3" points="307.1,114.7 307.1,142.8 362.9,142.8 362.9,198.7 391.1,198.7 391.1,114.7 		"/>
		<polygon class="st3" points="118.4,303.3 146.5,303.3 146.5,359.1 202.4,359.1 202.4,387.4 118.4,387.4 		"/>
		<polygon class="st3" points="202.4,114.7 202.4,142.8 146.5,142.8 146.5,198.7 118.4,198.7 118.4,114.7 		"/>
		<path class="st3" d="M254.7,145.3c-26.4,63.5-63.5,79.4-63.5,126.9c0,35,28.4,63.5,63.5,63.5c35,0,63.5-28.4,63.5-63.5
			C318.1,224.7,281.1,208.8,254.7,145.3z"/>
	</g>
	<g>
		<g>
			<g>
				<g>
					<g>
						<polygon class="st4" points="392,305.1 363.8,305.1 363.8,360.9 308,360.9 308,389.1 392,389.1 						"/>
						<polygon class="st4" points="308,116.4 308,144.6 363.8,144.6 363.8,200.5 392,200.5 392,116.4 						"/>
					</g>
				</g>
				<g>
					<g>
						<polygon class="st4" points="119.3,305.1 147.4,305.1 147.4,360.9 203.3,360.9 203.3,389.1 119.3,389.1 						"/>
						<polygon class="st4" points="203.3,116.4 203.3,144.6 147.4,144.6 147.4,200.5 119.3,200.5 119.3,116.4 						"/>
					</g>
				</g>
			</g>
			<path class="st4" d="M255.6,147.1C229.1,210.6,192,226.5,192,274c0,35,28.4,63.5,63.5,63.5c35,0,63.5-28.4,63.5-63.5
				C319,226.5,282,210.6,255.6,147.1z"/>
		</g>
	</g>
</g>
</svg>
