<?xml version="1.0" encoding="utf-8"?>
<!-- Generator: Adobe Illustrator 23.0.1, SVG Export Plug-In . SVG Version: 6.00 Build 0)  -->
<svg version="1.1" id="Layer_1" xmlns="http://www.w3.org/2000/svg" xmlns:xlink="http://www.w3.org/1999/xlink" x="0px" y="0px"
	 viewBox="0 0 512 349.7" style="enable-background:new 0 0 512 349.7;" xml:space="preserve">
<style type="text/css">
	.st0{fill-rule:evenodd;clip-rule:evenodd;fill:#55C5D0;}
	.st1{filter:url(#Adobe_OpacityMaskFilter);}
	.st2{fill-rule:evenodd;clip-rule:evenodd;fill:#FFFFFF;}
	.st3{mask:url(#mask-2_1_);fill-rule:evenodd;clip-rule:evenodd;fill:#FEC72B;}
	.st4{fill-rule:evenodd;clip-rule:evenodd;fill:#703D97;}
	.st5{fill-rule:evenodd;clip-rule:evenodd;fill:#F05852;}
</style>
<title>Desktop HD</title>
<desc>Created with Sketch.</desc>
<g id="Desktop-HD">
	<g id="Group-10" transform="translate(31.000000, 90.000000)">
		<path id="Fill-1" class="st0" d="M80.3,216.9c-1.9,8.9,4.9,12.2,10.6,11.2c3.2,16.9,29.5,15.5,32.7,1
			c4.7-21.3-19.6-27.9-29.1-16.8C89.8,208.8,81.8,210.1,80.3,216.9 M346.1,140.2c41,13.8,32,39.5-17.9,32.4
			c-15.8,2.3-11.6,23.3-16.9,25.1c-9.1,3.2-13-12.4-33.2-6.6c-20.2,5.8-19.4,27.1-30.9,44.4c-17.2,25.7-32.1-13.9-49.3-11.1
			c-11.4,1.8-64.2,40.2-53.5-2.7c1.2-4.9,1.5-9.4,1.1-13.4C221,203.5,290.1,178.8,346.1,140.2 M322.9,202.7
			c-3.5,15.8,17.4,16.2,19.6,6.1C345.9,193.8,325.5,190.8,322.9,202.7"/>
		<g id="Group-5" transform="translate(121.000000, 35.000000)">
			<g id="Clip-4">
			</g>
			<defs>
				<filter id="Adobe_OpacityMaskFilter" filterUnits="userSpaceOnUse" x="0.9" y="-81.1" width="324.8" height="231.6">
					<feColorMatrix  type="matrix" values="1 0 0 0 0  0 1 0 0 0  0 0 1 0 0  0 0 0 1 0"/>
				</filter>
			</defs>
			<mask maskUnits="userSpaceOnUse" x="0.9" y="-81.1" width="324.8" height="231.6" id="mask-2_1_">
				<g class="st1">
					<polygon id="path-1_1_" class="st2" points="0.9,-81.1 325.7,-81.1 325.7,150.5 0.9,150.5 					"/>
				</g>
			</mask>
			<path id="Fill-3" class="st3" d="M214.7-43.8c36.4-36.8,113-57.2,111-9.2c-2.1,50.8-72.8,25.3-93.2,48.3
				c-4.1,4.6,10.6,4.5,16,5.1c52.8,5.2-19.5,14.7-29,45.2c-3.3,12.5,15.6,12.7,16.8,23.8c0.8,7.3-14.7,13.9-20.2,21.3
				c-56.9,35.8-126.1,57.7-201,59.8c-3.9-3.8-8.8-6.7-14.3-8.8C86.8,107.4,162.2,42.2,214.7-43.8 M237.1,45.8
				c2.2,2.2,26.4,1,28.7-6.8C269.9,25.3,234.9,43.6,237.1,45.8"/>
		</g>
		<path id="Fill-6" class="st4" d="M91,109.4c-9.4-9.6-27.7,6.2-27.7-6.5c0-13,20.4,4.4,30.3-11c12.2-18.8-38.4-23.4-33.5-43.5
			c5-20.5,48.3-12.5,62.6-38.7c4.4-8-8-24.2-4.4-31.3c6.3-12.6,36.1-1.7,41.4-7.9c15.9-19,10.7-63.3,54.2-22.5
			c19.2,18,23.9,9.9,31.3,1.2c15.1-17.7,25.2-16.8,14-0.9c-15.8,22.5,70.2-53.6,50.9-22.6C256.6,12.2,179.3,77.2,91,109.4 M50.6,103
			c0,0-51.1-16.1-50.6,2.7C0.5,124.1,50.6,103,50.6,103 M111.5-29.6c3.9-1.1,0.5-11-6.6-24.4c-7.1-13.5-30.3,0.6-16.3,10.4
			c4.7,3.3,9.1,7.1,11.7,9.1C103.4-32.3,107.9-28.6,111.5-29.6 M25.3,42.8C22.9,53.7,37.3,54,38.8,47C41.1,36.7,27,34.7,25.3,42.8"
			/>
		<path id="Fill-8" class="st5" d="M313.5-19.5c-51,88.3-125.9,155.9-212.1,192.1c-54.5,5.5-3.9-25.5-6.3-54.6
			c83.2-25.5,157.7-80,213.3-154.2C323.7-56.6,319.7-30.3,313.5-19.5"/>
	</g>
</g>
</svg>
