<?xml version="1.0" encoding="utf-8"?>
<!-- Generator: Adobe Illustrator 23.0.1, SVG Export Plug-In . SVG Version: 6.00 Build 0)  -->
<svg version="1.1" id="Layer_1" xmlns="http://www.w3.org/2000/svg" xmlns:xlink="http://www.w3.org/1999/xlink" x="0px" y="0px"
	 viewBox="0 0 512 512" style="enable-background:new 0 0 512 512;" xml:space="preserve">
<style type="text/css">
	.st0{fill:url(#SVGID_1_);}
	.st1{fill:url(#SVGID_2_);}
	.st2{opacity:0.4;}
	.st3{fill:#FFFFFF;}
</style>
<g>
	<g>
		<g>
			
				<linearGradient id="SVGID_1_" gradientUnits="userSpaceOnUse" x1="646.3027" y1="-605.8488" x2="646.3027" y2="-1087.7544" gradientTransform="matrix(-1 0 0 1 902.8027 1091.0703)">
				<stop  offset="0" style="stop-color:#AE246B"/>
				<stop  offset="1" style="stop-color:#EC3D5A"/>
			</linearGradient>
			<path class="st0" d="M40.4,424.1c0.2,0.4,0.4,0.7,0.6,1.1c0,0,0,0.1,0.1,0.1c0.1,0.2,0.2,0.3,0.3,0.5c0,0.1,0.1,0.1,0.1,0.2
				c0.6,1.1,1.2,2.2,1.8,3.2c0.1,0.2,0.2,0.3,0.3,0.5c0.6,1,1.2,2,1.8,3c0.1,0.2,0.3,0.4,0.4,0.7c0.6,0.9,1.2,1.8,1.8,2.7
				c0.2,0.3,0.4,0.6,0.6,0.9c0.6,0.8,1.1,1.6,1.7,2.4c0.3,0.4,0.6,0.7,0.9,1.1c0.5,0.7,1,1.3,1.6,2c0.4,0.5,0.8,0.9,1.1,1.4
				c0.5,0.6,0.9,1.1,1.4,1.7s1,1.1,1.4,1.6s0.8,0.9,1.2,1.3c0.6,0.6,1.2,1.3,1.8,1.9c0.3,0.3,0.7,0.7,1,1c0.7,0.7,1.4,1.4,2.1,2.1
				c0.2,0.2,0.5,0.5,0.7,0.7c0.8,0.8,1.6,1.5,2.5,2.2c0.2,0.1,0.3,0.3,0.5,0.4c0.9,0.8,1.9,1.6,2.8,2.4c0.1,0.1,0.2,0.1,0.2,0.2
				c5.9,4.8,12.2,9,19,12.6c34.7,20.6,97,34.3,168.3,34.3c70.7,0,132.7-13.5,167.6-33.8c22.6-11.6,40.9-30.5,51.6-53.6
				c18.9-35.5,31.3-95.2,31.3-163s-12.4-127.5-31.3-163c-5.7-12.4-13.6-23.5-23.1-33s-20.6-17.4-33-23.1
				c-35.6-19-95.3-31.4-163-31.4c-67.8,0-127.5,12.4-163,31.3C70.4,47.4,51.5,65.6,40,88.1C19.7,122.9,6.2,184.9,6.2,255.7
				C6.2,327,19.9,389.4,40.4,424.1z"/>
			
				<linearGradient id="SVGID_2_" gradientUnits="userSpaceOnUse" x1="646.4026" y1="-608.2644" x2="646.4026" y2="-1085.1039" gradientTransform="matrix(-1 0 0 1 902.8027 1091.0703)">
				<stop  offset="0" style="stop-color:#AE247C"/>
				<stop  offset="1" style="stop-color:#EC145A"/>
			</linearGradient>
			<path class="st1" d="M42.7,422.3c0.2,0.4,0.4,0.7,0.6,1.1c0,0,0,0.1,0.1,0.1c0.1,0.2,0.2,0.3,0.3,0.5c0,0.1,0.1,0.1,0.1,0.2
				c0.6,1.1,1.2,2.1,1.8,3.2c0.1,0.2,0.2,0.3,0.3,0.5c0.6,1,1.2,2,1.8,2.9c0.2,0.2,0.3,0.4,0.4,0.7c0.6,0.9,1.2,1.8,1.8,2.7
				c0.2,0.3,0.4,0.6,0.6,0.9c0.6,0.8,1.1,1.6,1.7,2.3c0.3,0.4,0.6,0.7,0.8,1.1c0.5,0.7,1,1.3,1.6,2c0.4,0.5,0.7,0.9,1.1,1.4
				c0.5,0.6,0.9,1.1,1.4,1.6s0.9,1.1,1.4,1.6c0.4,0.4,0.8,0.9,1.2,1.3c0.6,0.6,1.2,1.2,1.7,1.8c0.3,0.3,0.7,0.7,1,1
				c0.7,0.7,1.4,1.4,2.1,2c0.2,0.2,0.5,0.5,0.7,0.7c0.8,0.7,1.6,1.5,2.4,2.2c0.2,0.1,0.3,0.3,0.5,0.4c0.9,0.8,1.8,1.6,2.8,2.4
				c0.1,0.1,0.2,0.1,0.2,0.2c5.8,4.7,12.1,8.9,18.8,12.4c34.3,20.3,96,33.9,166.5,33.9c70,0,131.3-13.4,165.8-33.5
				c22.4-11.5,40.5-30.2,51-53c18.7-35.2,30.9-94.2,30.9-161.2c0-67.1-12.3-126.1-31-161.3c-5.6-12.2-13.4-23.3-22.9-32.6
				c-9.4-9.4-20.4-17.2-32.6-22.9C382.6,20.3,323.5,8,256.5,8C189.3,8,130.3,20.3,95.2,39C72.4,49.5,53.7,67.6,42.2,89.9
				C22.2,124.3,8.8,185.7,8.8,255.7C8.8,326.2,22.4,388,42.7,422.3z"/>
		</g>
	</g>
</g>
<g>
	<g class="st2">
		<path d="M265.5,104.1c-84.3,0-152.8,68.5-152.8,152.8H86.6l44.2,55.4l44.3-55.4H142c0-68.1,55.4-123.4,123.4-123.4
			s123.4,55.4,123.4,123.4s-55.4,123.4-123.4,123.4c-33.2,0-64.4-13-87.8-36.7l-20.8,20.6c28.9,29.3,67.5,45.3,108.6,45.3
			c84.3,0,152.8-68.5,152.8-152.8S349.7,104.1,265.5,104.1z M250.9,176v88l50.2,40l18.2-22.9l-39.2-31.2V176H250.9z"/>
	</g>
	<g>
		<path class="st3" d="M263.7,102.3c-84.3,0-152.8,68.5-152.8,152.8H84.8l44.2,55.4l44.3-55.4h-33.1c0-68.1,55.4-123.4,123.4-123.4
			S387,187,387,255s-55.4,123.4-123.4,123.4c-33.2,0-64.4-13-87.8-36.7L155,362.4c28.9,29.3,67.5,45.3,108.6,45.3
			c84.3,0,152.8-68.5,152.8-152.8S347.8,102.3,263.7,102.3z M249,174.1v88l50.2,40l18.2-22.9L278.3,248v-73.9H249z"/>
	</g>
</g>
</svg>
