<?xml version="1.0" encoding="UTF-8"?>
<svg width="24px" height="23px" viewBox="0 0 24 23" version="1.1" xmlns="http://www.w3.org/2000/svg" xmlns:xlink="http://www.w3.org/1999/xlink">
    <!-- Generator: Sketch 52.1 (67048) - http://www.bohemiancoding.com/sketch -->
    <title>sidebar/home-ficon</title>
    <desc>Created with Sketch.</desc>
    <defs>
        <path d="M22.9032852,10.8765549 C22.6138647,10.8765549 22.3427293,10.7771291 22.1398778,10.5971341 L11.9995882,2.59592785 L1.84672753,10.6079909 C1.65901846,10.7754148 1.39131162,10.8734121 1.10589098,10.8734121 C0.74704381,10.8734121 0.409910323,10.7159879 0.203630342,10.4525666 C-0.201501256,9.93429533 0.0659198832,9.17888776 0.415053037,8.83261166 L0.43905237,8.81118369 L11.2958935,0.23999333 C11.539601,0.0799977767 11.7670233,0.00428559518 11.9941598,0 L11.9953026,0 C12.2447243,0 12.4721465,0.0774264196 12.6901405,0.229993608 L23.5604098,8.81118369 C24.0249683,9.15745978 24.1472506,9.9688658 23.8018316,10.4442812 C23.6046943,10.7151308 23.2689893,10.8765549 22.9032852,10.8765549 Z M12.0852697,4.44693818 L20.8573307,11.7878796 L20.8573307,21.0267657 C20.8573307,21.5872272 20.4084638,22.0271979 19.8547584,22.0271979 L15.1631452,22.0271979 C14.5999659,22.0271979 14.1605729,21.5767029 14.1605729,21.020989 L14.1605729,16.2141225 C14.1605729,15.6553459 13.7130964,15.2079136 13.1611062,15.2079136 L10.8035499,15.2079136 C10.2538955,15.2079136 9.80408314,15.655579 9.80408314,16.2078021 L9.80408314,20.984475 C9.80408314,21.5397417 9.35716507,21.9872346 8.80586368,21.9907763 L4.13461997,22.0207852 C3.5842394,22.0243209 3.1364005,21.5811377 3.1364005,21.0308946 L3.1364005,11.8301385 L12.0852697,4.44693818 Z" id="path-1"></path>
    </defs>
    <g id="Workflow" stroke="none" stroke-width="1" fill="none" fill-rule="evenodd">
        <g id="Users-Copy-49" transform="translate(-12.000000, -61.000000)">
            <g id="sidebar/active-home-ficon-copy" transform="translate(0.000000, 48.000000)">
                <g id="whiteFicon-tint" transform="translate(12.000000, 13.000000)">
                    <mask id="mask-2" fill="white">
                        <use xlink:href="#path-1"></use>
                    </mask>
                    <use id="Mask" fill="#FFFFFF" xlink:href="#path-1"></use>
                </g>
            </g>
        </g>
    </g>
</svg>