<?xml version="1.0" encoding="utf-8"?>
<!-- Generator: Adobe Illustrator 23.0.1, SVG Export Plug-In . SVG Version: 6.00 Build 0)  -->
<svg version="1.1" id="Layer_1" xmlns="http://www.w3.org/2000/svg" xmlns:xlink="http://www.w3.org/1999/xlink" x="0px" y="0px"
	 viewBox="0 0 512 512" style="enable-background:new 0 0 512 512;" xml:space="preserve">
<style type="text/css">
	.st0{fill:url(#SVGID_1_);}
	.st1{opacity:0.4;}
	.st2{fill:#FFFFFF;}
</style>
<linearGradient id="SVGID_1_" gradientUnits="userSpaceOnUse" x1="255.4925" y1="25.7661" x2="255.4925" y2="507.8432">
	<stop  offset="0" style="stop-color:#FFE807"/>
	<stop  offset="0.1257" style="stop-color:#FDD410"/>
	<stop  offset="0.3823" style="stop-color:#F6A126"/>
	<stop  offset="0.7435" style="stop-color:#EC504A"/>
	<stop  offset="1" style="stop-color:#E41365"/>
</linearGradient>
<path class="st0" d="M471.7,86.9c-0.2-0.4-0.4-0.7-0.6-1.1c0,0,0-0.1-0.1-0.1c-0.1-0.2-0.2-0.3-0.3-0.5c0-0.1-0.1-0.1-0.1-0.2
	c-0.6-1.1-1.2-2.2-1.8-3.2c-0.1-0.2-0.2-0.3-0.3-0.5c-0.6-1-1.2-2-1.8-3c-0.1-0.2-0.3-0.5-0.4-0.7c-0.6-0.9-1.2-1.8-1.8-2.7
	c-0.2-0.3-0.4-0.6-0.6-0.9c-0.6-0.8-1.1-1.6-1.7-2.4c-0.3-0.4-0.6-0.8-0.9-1.1c-0.5-0.7-1-1.4-1.6-2c-0.4-0.5-0.8-0.9-1.1-1.4
	c-0.5-0.6-0.9-1.1-1.4-1.7c-0.5-0.6-1-1.1-1.4-1.6c-0.4-0.4-0.8-0.9-1.2-1.3c-0.6-0.6-1.2-1.2-1.8-1.9c-0.3-0.3-0.7-0.7-1-1
	c-0.7-0.7-1.4-1.4-2.1-2.1c-0.2-0.2-0.5-0.5-0.7-0.7c-0.8-0.8-1.6-1.5-2.5-2.2c-0.2-0.1-0.3-0.3-0.5-0.4c-0.9-0.8-1.9-1.6-2.8-2.4
	c-0.1-0.1-0.2-0.1-0.2-0.2c-5.9-4.8-12.2-9-19-12.6C389.2,18.5,326.8,4.8,255.5,4.8c-70.8,0-132.8,13.5-167.6,33.8
	C65.3,50.2,47,69.1,36.3,92.3c-18.9,35.5-31.3,95.3-31.3,163c0,67.8,12.4,127.5,31.3,163c5.7,12.4,13.6,23.5,23.1,33
	c9.5,9.5,20.6,17.4,33,23.1c35.5,18.9,95.3,31.3,163,31.3c67.8,0,127.5-12.4,163-31.3c23.1-10.7,41.9-28.9,53.5-51.5
	c20.3-34.8,33.9-96.8,33.9-167.7C505.9,184,492.2,121.6,471.7,86.9z"/>
<g>
	<g class="st1">
		<path d="M202,353.6c-20.6-0.4-37.7,15.9-38.1,36.5c-0.4,20.6,15.9,37.7,36.5,38.1c20.6,0.4,37.7-15.9,38.1-36.5c0-0.4,0-0.8,0-1.2
			c0.2-20.2-16-36.7-36.1-36.9C202.2,353.6,202.1,353.6,202,353.6z"/>
		<path d="M345,353.6c-20.6-0.7-37.8,15.5-38.5,36.1c-0.7,20.6,15.5,37.8,36.1,38.5c20.6,0.7,37.8-15.5,38.5-36.1c0-0.5,0-1,0-1.6
			C381.4,370.3,365.2,353.8,345,353.6C345,353.6,345,353.6,345,353.6z"/>
		<path d="M272.9,114.4c-17,40.7-40.7,50.9-40.7,81.5c0,22.5,18.2,40.7,40.7,40.7c22.5,0,40.7-18.2,40.7-40.7
			C313.6,165.3,289.9,155.1,272.9,114.4z"/>
		<path d="M399.4,191.1c-1.2-0.4-2.5-0.6-3.7-0.5h-62.9v16c0,32.8-26.8,59.6-59.6,59.6h0c-33,0-60-27-60-60v-15.6h-53.1l-10.3-33
			c-1.4-5-5.9-8.6-11.1-8.7h-33.5v11.3v12.6h24.3l47.3,151.7c1.4,5,6,8.4,11.1,8.3h172c5.2-0.1,9.8-3.4,11.5-8.3l35.7-118.4
			C409.2,199.8,405.7,193.1,399.4,191.1z"/>
	</g>
	<g>
		<g>
			<path class="st2" d="M201,351.6c-20.6-0.4-37.7,15.9-38.1,36.5c-0.4,20.6,15.9,37.7,36.5,38.1c20.6,0.4,37.7-15.9,38.1-36.5
				c0-0.4,0-0.8,0-1.2c0.2-20.2-16-36.7-36.1-36.9C201.2,351.6,201.1,351.6,201,351.6z"/>
			<path class="st2" d="M344,351.6c-20.6-0.7-37.8,15.5-38.5,36.1c-0.7,20.6,15.5,37.8,36.1,38.5c20.6,0.7,37.8-15.5,38.5-36.1
				c0-0.5,0-1,0-1.6C380.4,368.3,364.2,351.8,344,351.6C344,351.6,344,351.6,344,351.6z"/>
			<path class="st2" d="M271.9,112.4c-17,40.7-40.7,50.9-40.7,81.5c0,22.5,18.2,40.7,40.7,40.7c22.5,0,40.7-18.2,40.7-40.7
				C312.6,163.3,288.9,153.1,271.9,112.4z"/>
			<path class="st2" d="M398.4,189.1c-1.2-0.4-2.5-0.6-3.7-0.5h-62.9v16c0,32.8-26.8,59.6-59.6,59.6h0c-33,0-60-27-60-60v-15.6
				h-53.1l-10.3-33c-1.4-5-5.9-8.6-11.1-8.7h-33.5v11.3v12.6h24.3l47.3,151.7c1.4,5,6,8.4,11.1,8.3h172c5.2-0.1,9.8-3.4,11.5-8.3
				l35.7-118.4C408.2,197.8,404.7,191.1,398.4,189.1z"/>
		</g>
	</g>
</g>
</svg>
