<?xml version="1.0" encoding="utf-8"?>
<!-- Generator: Adobe Illustrator 23.0.1, SVG Export Plug-In . SVG Version: 6.00 Build 0)  -->
<svg version="1.1" id="Layer_1" xmlns="http://www.w3.org/2000/svg" xmlns:xlink="http://www.w3.org/1999/xlink" x="0px" y="0px"
	 viewBox="0 0 512 512" style="enable-background:new 0 0 512 512;" xml:space="preserve">
<style type="text/css">
	.st0{fill:url(#SVGID_1_);}
	.st1{fill:url(#SVGID_2_);}
	.st2{opacity:0.4;}
	.st3{fill:#FFFFFF;}
</style>
<g>
	
		<linearGradient id="SVGID_1_" gradientUnits="userSpaceOnUse" x1="647.8027" y1="-606.2454" x2="647.8027" y2="-1086.9229" gradientTransform="matrix(-1 0 0 1 902.8027 1091.0703)">
		<stop  offset="0" style="stop-color:#3A6CA5"/>
		<stop  offset="1" style="stop-color:#65F598"/>
	</linearGradient>
	<path class="st0" d="M39.5,423.9c0.2,0.4,0.4,0.7,0.6,1.1c0,0,0,0.1,0.1,0.1c0.1,0.2,0.2,0.3,0.3,0.5c0,0.1,0.1,0.1,0.1,0.2
		c0.6,1.1,1.2,2.2,1.8,3.2c0.1,0.2,0.2,0.3,0.3,0.5c0.6,1,1.2,2,1.8,3c0.1,0.2,0.3,0.4,0.4,0.7c0.6,0.9,1.2,1.8,1.8,2.7
		c0.2,0.3,0.4,0.6,0.6,0.9c0.6,0.8,1.1,1.6,1.7,2.3c0.3,0.4,0.6,0.7,0.9,1.1c0.5,0.7,1,1.3,1.6,2c0.4,0.5,0.8,0.9,1.1,1.4
		c0.5,0.6,0.9,1.1,1.4,1.7c0.5,0.5,1,1.1,1.4,1.6c0.4,0.4,0.8,0.9,1.2,1.3c0.6,0.6,1.2,1.2,1.8,1.9c0.3,0.3,0.6,0.7,1,1
		c0.7,0.7,1.4,1.4,2.1,2.1c0.2,0.2,0.5,0.5,0.7,0.7c0.8,0.8,1.6,1.5,2.5,2.2c0.2,0.1,0.3,0.3,0.5,0.4c0.9,0.8,1.9,1.6,2.8,2.4
		c0.1,0.1,0.2,0.1,0.2,0.2c5.9,4.8,12.2,9,18.9,12.5c34.6,20.5,96.8,34.2,167.9,34.2c70.6,0,132.4-13.5,167.1-33.7
		c22.6-11.5,40.8-30.4,51.4-53.5c18.8-35.4,31.2-95,31.2-162.5c0-67.6-12.4-127.2-31.2-162.6C467.8,81.2,460,70,450.4,60.6
		c-9.4-9.5-20.6-17.4-32.9-23c-35.4-19-95-31.3-162.5-31.3c-67.6,0-127.1,12.4-162.6,31.2c-23,10.6-41.8,28.8-53.3,51.3
		C18.8,123.5,5.3,185.4,5.3,256C5.3,327,19,389.3,39.5,423.9z"/>
	
		<linearGradient id="SVGID_2_" gradientUnits="userSpaceOnUse" x1="647.8527" y1="-608.6549" x2="647.8527" y2="-1084.2792" gradientTransform="matrix(-1 0 0 1 902.8027 1091.0703)">
		<stop  offset="0" style="stop-color:#009EFD"/>
		<stop  offset="1" style="stop-color:#2AF598"/>
	</linearGradient>
	<path class="st1" d="M41.7,422.1c0.2,0.4,0.4,0.7,0.6,1.1c0,0,0,0.1,0.1,0.1c0.1,0.2,0.2,0.3,0.3,0.5c0,0.1,0.1,0.1,0.1,0.2
		c0.6,1.1,1.2,2.1,1.8,3.2c0.1,0.2,0.2,0.3,0.3,0.5c0.6,1,1.2,2,1.8,2.9c0.2,0.2,0.3,0.4,0.4,0.7c0.6,0.9,1.2,1.8,1.8,2.7
		c0.2,0.3,0.4,0.6,0.6,0.9c0.6,0.8,1.1,1.5,1.7,2.3c0.3,0.4,0.6,0.7,0.8,1.1c0.5,0.7,1,1.3,1.6,2c0.4,0.5,0.7,0.9,1.1,1.4
		c0.5,0.6,0.9,1.1,1.4,1.6s0.9,1.1,1.4,1.6c0.4,0.4,0.8,0.9,1.2,1.3c0.6,0.6,1.2,1.2,1.7,1.8c0.3,0.3,0.6,0.7,1,1
		c0.7,0.7,1.4,1.4,2.1,2c0.2,0.2,0.5,0.5,0.7,0.7c0.8,0.7,1.6,1.5,2.4,2.2c0.2,0.1,0.3,0.3,0.5,0.4c0.9,0.8,1.8,1.6,2.8,2.4
		c0.1,0.1,0.2,0.1,0.2,0.2c5.8,4.7,12,8.9,18.7,12.4c34.2,20.3,95.8,33.8,166.1,33.8c69.8,0,131-13.3,165.4-33.4
		c22.4-11.4,40.4-30.1,50.9-52.9c18.6-35.1,30.8-94,30.8-160.8c0-66.9-12.2-125.8-30.9-160.9c-5.6-12.2-13.4-23.2-22.8-32.6
		s-20.4-17.2-32.6-22.8C380.8,21.1,321.8,8.9,255,8.9c-66.9,0-125.8,12.2-160.9,30.9C71.4,50.3,52.7,68.3,41.3,90.6
		C21.3,124.9,7.9,186.1,7.9,256C7.9,326.3,21.5,387.9,41.7,422.1z"/>
</g>
<g>
	<g class="st2">
		<path d="M362.8,210.1c-13.3-45.6-55.4-78.9-105.2-78.9l0,0c-59.3,0-107.5,47.1-109.5,106c-2.9-0.4-5.9-0.7-8.9-0.7
			c-36.4,0-65.8,29.4-65.8,65.8s29.4,65.8,65.8,65.8h223.5c43.6,0,78.9-35.4,78.9-78.9C441.7,245.4,406.4,210.1,362.8,210.1z
			 M289.9,326.9c-10.8,5.4-22.3,8.1-33.8,8.1c-22.7,0-45-10.2-59.6-29.1c-19.5-25.1-21.2-59.7-4.3-86.5l-10.2-7.4l34.4-9l1.9,35.6
			l-11-8.1c-12,20-10.6,45.4,3.9,63.9c16.6,21.4,46.2,28,70.2,15.9l2.1-1.1l8.4,16.6L289.9,326.9z M332.2,305.4l-34.4,9l-1.9-35.6
			l10.3,7.5c12.2-20.1,10.8-45.5-3.8-64.2c-16.6-21.4-46.2-28-70.2-15.9l-2.1,1.1l-8.4-16.6l2.1-1.1c32.1-16.2,71.4-7.3,93.5,21.1
			c19.6,25.2,21.2,59.8,4.1,86.6L332.2,305.4z"/>
	</g>
	<g>
		<path class="st3" d="M361.9,208.3c-13.3-45.6-55.4-78.9-105.2-78.9l0,0c-59.3,0-107.5,47.1-109.5,106c-2.9-0.4-5.9-0.7-8.9-0.7
			c-36.4,0-65.8,29.4-65.8,65.8s29.4,65.8,65.8,65.8h223.5c43.6,0,78.9-35.4,78.9-78.9C440.9,243.6,405.5,208.3,361.9,208.3z
			 M289,325.2c-10.8,5.4-22.3,8.1-33.8,8.1c-22.7,0-45-10.2-59.7-29.1c-19.5-25.1-21.2-59.7-4.3-86.5l-10.2-7.4l34.4-9l1.9,35.6
			l-11-8.1c-12,20-10.6,45.4,3.9,63.9c16.6,21.4,46.2,28,70.2,15.9l2.1-1.1l8.4,16.6L289,325.2z M331.3,303.6l-34.4,9l-1.9-35.6
			l10.3,7.5c12.2-20.1,10.8-45.5-3.8-64.2c-16.6-21.4-46.2-28-70.2-15.9l-2.1,1.1l-8.4-16.6l2.1-1.1c32.1-16.2,71.4-7.3,93.5,21.1
			c19.6,25.2,21.2,59.8,4.1,86.6L331.3,303.6z"/>
	</g>
</g>
</svg>
