<?xml version="1.0" encoding="UTF-8"?>
<svg width="38px" height="38px" viewBox="0 0 38 38" version="1.1" xmlns="http://www.w3.org/2000/svg" xmlns:xlink="http://www.w3.org/1999/xlink">
    <!-- Generator: Sketch 52.5 (67469) - http://www.bohemiancoding.com/sketch -->
    <title>logo_placeholder copy 4</title>
    <desc>Created with Sketch.</desc>
    <defs>
        <linearGradient x1="50.1299534%" y1="4.17138889%" x2="50.1299534%" y2="100.419444%" id="linearGradient-1">
            <stop stop-color="#DBBAF2" offset="0%"></stop>
            <stop stop-color="#0021AE" offset="100%"></stop>
        </linearGradient>
        <linearGradient x1="51.0132043%" y1="-4.09042254%" x2="49.0671029%" y2="111.395493%" id="linearGradient-2">
            <stop stop-color="#9F60F2" offset="0%"></stop>
            <stop stop-color="#3695E6" offset="100%"></stop>
        </linearGradient>
        <filter x="-12.5%" y="-11.4%" width="125.0%" height="122.7%" filterUnits="objectBoundingBox" id="filter-3">
            <feOffset dx="0" dy="1" in="SourceAlpha" result="shadowOffsetOuter1"></feOffset>
            <feColorMatrix values="0 0 0 0 0   0 0 0 0 0   0 0 0 0 0  0 0 0 0.25 0" type="matrix" in="shadowOffsetOuter1" result="shadowMatrixOuter1"></feColorMatrix>
            <feMerge>
                <feMergeNode in="shadowMatrixOuter1"></feMergeNode>
                <feMergeNode in="SourceGraphic"></feMergeNode>
            </feMerge>
        </filter>
    </defs>
    <g id="logo_placeholder-copy-4" stroke="none" stroke-width="1" fill="none" fill-rule="evenodd">
        <g id="Group" transform="translate(1.000000, 1.000000)">
            <g id="IQ_logo-Copy">
                <g id="Group">
                    <path d="M2.64470588,30.0964706 C2.65882353,30.1223529 2.67294118,30.1482353 2.68705882,30.1717647 C2.68941176,30.1741176 2.68941176,30.1788235 2.69176471,30.1811765 C2.69882353,30.1929412 2.70588235,30.2047059 2.71294118,30.2188235 C2.71529412,30.2235294 2.71764706,30.2282353 2.72,30.2305882 C2.76235294,30.3082353 2.80705882,30.3858824 2.85176471,30.4611765 C2.85882353,30.4729412 2.86588235,30.4847059 2.87294118,30.4964706 C2.91529412,30.5670588 2.96,30.6376471 3.00470588,30.7082353 C3.01411765,30.7247059 3.02588235,30.7411765 3.03764706,30.7576471 C3.08,30.8211765 3.12235294,30.8847059 3.16470588,30.9482353 C3.17882353,30.9694118 3.19529412,30.9905882 3.20941176,31.0117647 C3.24941176,31.0682353 3.28941176,31.1247059 3.33176471,31.1788235 C3.35294118,31.2070588 3.37176471,31.2329412 3.39294118,31.2611765 C3.42823529,31.3082353 3.46823529,31.3576471 3.50588235,31.4047059 C3.53411765,31.4376471 3.56,31.4705882 3.58823529,31.5035294 C3.62117647,31.5435294 3.65411765,31.5835294 3.68705882,31.6235294 C3.72235294,31.6635294 3.75529412,31.7011765 3.79058824,31.7388235 C3.81882353,31.7717647 3.84705882,31.8023529 3.87764706,31.8329412 C3.92,31.8776471 3.96,31.9223529 4.00470588,31.9670588 C4.02823529,31.9905882 4.05176471,32.0141176 4.07529412,32.0376471 C4.12470588,32.0870588 4.17411765,32.1364706 4.22588235,32.1858824 C4.24235294,32.2023529 4.26117647,32.2188235 4.27764706,32.2352941 C4.33647059,32.2894118 4.39294118,32.3435294 4.45411765,32.3952941 C4.46588235,32.4047059 4.47764706,32.4164706 4.48941176,32.4258824 C4.55529412,32.4847059 4.62117647,32.5411765 4.68941176,32.5976471 C4.69411765,32.6023529 4.70117647,32.6047059 4.70588235,32.6117647 C5.12470588,32.9529412 5.57647059,33.2541176 6.06117647,33.5082353 C8.53411765,34.9741176 12.9882353,35.9529412 18.0705882,35.9529412 C23.12,35.9529412 27.5435294,34.9882353 30.0282353,33.5411765 C31.6447059,32.7152941 32.9458824,31.3647059 33.7082353,29.7152941 C35.0541176,27.1788235 35.9388235,22.9176471 35.9388235,18.0870588 C35.9388235,13.2517647 35.0541176,8.98823529 33.7058824,6.45411765 C33.2988235,5.57176471 32.7364706,4.77647059 32.0541176,4.09882353 C31.3788235,3.41882353 30.5811765,2.85647059 29.6988235,2.44941176 C27.1623529,1.10352941 22.9011765,0.218823529 18.0682353,0.218823529 C13.2329412,0.218823529 8.97176471,1.10352941 6.43529412,2.45176471 C4.78823529,3.21176471 3.44235294,4.51294118 2.61882353,6.12235294 C1.16941176,8.60705882 0.202352941,13.0305882 0.202352941,18.0823529 C0.2,23.1670588 1.17882353,27.6211765 2.64470588,30.0964706 Z" id="Path" fill="url(#linearGradient-1)"></path>
                    <path d="M2.80705882,29.9694118 C2.82117647,29.9952941 2.83529412,30.0188235 2.84705882,30.0447059 C2.84941176,30.0470588 2.84941176,30.0494118 2.85176471,30.0517647 C2.85882353,30.0635294 2.86588235,30.0752941 2.87294118,30.0894118 C2.87529412,30.0941176 2.87764706,30.0964706 2.88,30.1011765 C2.92235294,30.1788235 2.96470588,30.2541176 3.00941176,30.3294118 C3.01647059,30.3411765 3.02352941,30.3505882 3.03058824,30.3623529 C3.07294118,30.4329412 3.11764706,30.5035294 3.16,30.5717647 C3.17176471,30.5882353 3.18117647,30.6023529 3.19058824,30.6188235 C3.23294118,30.6823529 3.27529412,30.7458824 3.31764706,30.8094118 C3.33176471,30.8305882 3.34823529,30.8517647 3.36235294,30.8729412 C3.40235294,30.9270588 3.44235294,30.9835294 3.48235294,31.04 C3.50352941,31.0658824 3.52235294,31.0941176 3.54352941,31.12 C3.58117647,31.1670588 3.61647059,31.2164706 3.65647059,31.2635294 C3.68235294,31.2964706 3.71058824,31.3294118 3.73647059,31.36 C3.76941176,31.4 3.80235294,31.44 3.83529412,31.4776471 C3.86823529,31.5152941 3.90117647,31.5552941 3.93647059,31.5929412 C3.96470588,31.6235294 3.99294118,31.6564706 4.02117647,31.6870588 C4.06117647,31.7317647 4.10352941,31.7764706 4.14588235,31.8188235 C4.16941176,31.8423529 4.19294118,31.8658824 4.21647059,31.8894118 C4.26588235,31.9388235 4.31529412,31.9858824 4.36470588,32.0352941 C4.38117647,32.0517647 4.4,32.0682353 4.41647059,32.0847059 C4.47294118,32.1388235 4.53176471,32.1905882 4.59058824,32.2423529 C4.60235294,32.2517647 4.61176471,32.2635294 4.62352941,32.2705882 C4.68941176,32.3294118 4.75529412,32.3835294 4.82117647,32.44 C4.82588235,32.4447059 4.83294118,32.4494118 4.83764706,32.4541176 C5.25176471,32.7929412 5.69882353,33.0894118 6.17647059,33.3411765 C8.62352941,34.7929412 13.0305882,35.76 18.0611765,35.76 C23.0564706,35.76 27.4329412,34.8047059 29.8917647,33.3717647 C31.4917647,32.5552941 32.7811765,31.2188235 33.5341176,29.5858824 C34.8658824,27.0776471 35.7411765,22.8611765 35.7411765,18.08 C35.7411765,13.2941176 34.8658824,9.07764706 33.5317647,6.56941176 C33.1294118,5.69647059 32.5717647,4.91058824 31.8988235,4.24 C31.2305882,3.56705882 30.4423529,3.01176471 29.5694118,2.60941176 C27.0611765,1.27764706 22.8447059,0.402352941 18.0611765,0.402352941 C13.2752941,0.402352941 9.05882353,1.27764706 6.55294118,2.61176471 C4.92470588,3.36470588 3.59294118,4.64941176 2.77647059,6.24470588 C1.34117647,8.70352941 0.385882353,13.0823529 0.385882353,18.08 C0.388235294,23.1129412 1.35764706,27.52 2.80705882,29.9694118 Z" id="Path" fill="url(#linearGradient-2)"></path>
                    <g id="Group-Copy" filter="url(#filter-3)" transform="translate(8.000000, 7.000000)" fill="#FFFFFF" fill-rule="nonzero">
                        <path d="M18.6672727,15.9911824 L16.5982694,13.342979 C16.8584003,12.6104374 17,11.8217549 17,11 C17,7.13400675 13.8659932,4 10,4 C6.13400675,4 3,7.13400675 3,11 C3,14.8659932 6.13400675,18 10,18 C10.4317768,18 10.8544229,17.9609072 11.2645921,17.8860681 L13.2701553,20.4530718 C12.2454626,20.8074923 11.1452126,21 10,21 C4.4771525,21 0,16.5228475 0,11 C0,5.4771525 4.4771525,1 10,1 C15.5228475,1 20,5.4771525 20,11 C20,12.8177972 19.5149722,14.52231 18.6672727,15.9911824 Z" id="Combined-Shape"></path>
                        <rect id="Rectangle" transform="translate(15.102492, 17.211942) rotate(52.000000) translate(-15.102492, -17.211942) " x="11.1024924" y="15.7119422" width="8" height="3"></rect>
                        <circle id="Oval" cx="10" cy="11" r="2"></circle>
                    </g>
                </g>
            </g>
        </g>
    </g>
</svg>