<?xml version="1.0" encoding="UTF-8"?>
<svg width="500px" height="500px" viewBox="0 0 500 500" version="1.1" xmlns="http://www.w3.org/2000/svg" xmlns:xlink="http://www.w3.org/1999/xlink">
    <!-- Generator: Sketch 52.6 (67491) - http://www.bohemiancoding.com/sketch -->
    <title>Group</title>
    <desc>Created with Sketch.</desc>
    <defs>
        <linearGradient x1="50%" y1="0%" x2="50%" y2="100%" id="linearGradient-1">
            <stop stop-color="#B1F537" offset="0%"></stop>
            <stop stop-color="#20520C" offset="100%"></stop>
        </linearGradient>
        <linearGradient x1="50%" y1="0%" x2="50%" y2="100%" id="linearGradient-2">
            <stop stop-color="#B4EC51" offset="0%"></stop>
            <stop stop-color="#429321" offset="100%"></stop>
        </linearGradient>
    </defs>
    <g id="Page-1" stroke="none" stroke-width="1" fill="none" fill-rule="evenodd">
        <g id="Group">
            <g id="Group-2" fill-rule="nonzero">
                <g id="app_icons_v3_part2_efigo">
                    <path d="M465.79,81.92 C465.6,81.56 465.4,81.22 465.21,80.86 L465.15,80.74 L464.87,80.23 L464.77,80.05 C464.17,78.9633333 463.556667,77.8866667 462.93,76.82 L462.64,76.34 C462.04,75.34 461.426667,74.34 460.8,73.34 L460.36,72.66 C459.773333,71.76 459.173333,70.87 458.56,69.99 L457.93,69.09 C457.37,68.2966667 456.8,67.5133333 456.22,66.74 L455.36,65.6 C454.84,64.9333333 454.313333,64.2666667 453.78,63.6 L452.64,62.21 C452.173333,61.65 451.703333,61.0966667 451.23,60.55 C450.756667,60.0033333 450.276667,59.46 449.79,58.92 L448.58,57.59 C448,56.9633333 447.413333,56.3433333 446.82,55.73 L445.82,54.73 C445.153333,54.0633333 444.453333,53.3733333 443.72,52.66 L443,52 C442.193333,51.24 441.373333,50.4933333 440.54,49.76 L440.06,49.34 C439.133333,48.5333333 438.196667,47.74 437.25,46.96 L437.02,46.77 C431.143887,41.9644513 424.798503,37.7632306 418.08,34.23 C383.46,13.69 321.18,0 250,0 C179.39,0 117.47,13.49 82.7,33.76 C60.0275106,45.3399976 41.8964611,64.1929087 31.21,87.3 C12.37,122.77 0,182.4 0,250 C0,317.6 12.39,377.3 31.24,412.76 C42.7795487,437.421041 62.6186699,457.242465 87.29,468.76 C122.77,487.63 182.4,500 250,500 C317.6,500 377.3,487.61 412.76,468.76 C435.802875,458.081557 454.6085,439.997601 466.18,417.39 C486.49,382.62 500,320.71 500,250 C500,178.87 486.31,116.55 465.79,81.92 Z" id="Shape" fill="url(#linearGradient-1)"></path>
                    <path d="M463.53,83.69 C463.41,83.4566667 463.106667,82.9133333 462.62,82.06 C461.926667,80.8066667 461.32,79.74 460.7,78.68 C459.816667,77.2133333 459.21,76.2333333 458.59,75.26 C457.57,73.6933333 456.976667,72.8133333 456.37,71.94 C455.186667,70.2633333 454.623333,69.4866667 454.05,68.72 C452.686667,66.9333333 452.166667,66.2666667 451.64,65.6 L450.5,64.2 C450.04,63.6466667 449.576667,63.0966667 449.11,62.55 C448.643333,62.0033333 448.17,61.4666667 447.69,60.94 L446.5,59.63 C445.926667,59.01 445.346667,58.3966667 444.76,57.79 C443.093333,56.1233333 442.4,55.4566667 441.68,54.79 C440.15,53.3466667 439.34,52.6066667 438.52,51.88 C437.136667,50.66 436.21,49.8733333 435.27,49.1 C429.236032,44.1643737 422.957651,40.006705 416.31,36.51 C382.06,16.18 320.43,2.63 250,2.63 C180.13,2.63 118.87,16 84.46,36 C62.0218947,47.4641886 44.0806143,66.1273459 33.51,89 C14.87,124.1 2.63,183.1 2.63,250 C2.63,316.9 14.89,376 33.55,411 C44.9505885,435.429412 64.5788154,455.071798 89,466.49 C124.1,485.13 183.1,497.37 250,497.37 C316.9,497.37 376,485.11 411,466.45 C433.797697,455.882551 452.402571,437.988781 463.85,415.62 C484,381.23 497.37,320 497.37,250 C497.37,179.61 483.82,118 463.53,83.69 Z" id="Shape" fill="url(#linearGradient-2)"></path>
                </g>
            </g>
            <g id="Group-6" opacity="0.399999976" transform="translate(87.500000, 143.750000)" fill="#000000">
                <path d="M33.0314516,119.387903 C21.0527419,87.4495161 22.8672581,51.8806452 38.1062903,21.4040323 C40.6437823,15.9604839 38.1062903,9.42532258 32.6627419,6.88790323 C27.5879032,4.35041129 21.4069355,6.51933871 18.5153226,11.6085484 C0.37016129,47.5301613 -1.81306452,89.2625806 12.348871,127.015403 C14.5319516,132.827661 20.6985484,135.365081 26.4962903,133.550565 C32.2943952,131.736048 35.2001613,124.83254 33.0314516,119.388992 L33.0314516,119.387903 Z" id="Fill-1"></path>
                <path d="M307.745565,11.6092742 C305.208073,6.16572581 298.672984,3.9825 293.229435,6.88862903 C287.785887,9.42612097 285.602661,15.9612097 288.50879,21.4047581 C303.747823,51.8828226 305.562339,87.4495161 293.583629,119.388629 C291.400548,124.832177 294.306605,131.367339 299.750081,133.536048 C305.193629,135.719129 311.72879,132.813073 313.8975,127.369597 C328.059073,89.2792742 325.890363,47.5454032 307.745202,11.6107258 L307.745565,11.6092742 Z" id="Fill-2"></path>
                <path d="M57.3423387,105.241935 C63.1545968,104.150395 66.783629,98.7067742 65.6920161,92.9090323 C63.5089355,80.2074194 63.8775,67.5058065 66.7835565,55.1743548 C68.2295081,49.3620968 64.6004758,43.5643548 58.8025887,42.1040323 C52.9903306,40.6580806 47.1925887,44.2871129 45.7322661,50.085 C42.1032339,65.3240323 41.7345242,81.3004839 44.2863145,96.8922581 C45.3637016,102.704516 51.1756694,106.333548 57.3424839,105.241935 L57.3423387,105.241935 Z" id="Fill-3"></path>
                <path d="M259.845968,54.8056452 C262.752024,67.1385484 263.106435,80.208871 260.937508,92.5403226 C259.845968,98.3525806 263.843565,104.150323 269.641379,105.241935 C275.453637,106.333476 281.251379,102.335879 282.342992,96.5380645 C285.249048,80.9303226 284.880484,64.9683871 281.251452,49.7308065 C280.159911,43.9185484 274.362097,39.9353226 268.549839,41.0269355 C262.737581,42.1184758 258.754355,47.9162903 259.845968,53.7285484 L259.845968,54.8058992 L259.845968,54.8056452 Z" id="Fill-4"></path>
                <path d="M236.979435,142.254435 C226.092339,130.644435 221.371694,118.665726 221.371694,103.779435 L221.371694,87.0942339 C221.371694,66.4116532 210.115887,47.5450403 192.339435,37.380121 L192.339435,30.4907661 C192.339435,14.8830242 179.637823,2.18141129 164.030081,2.18141129 C148.422339,2.18141129 135.720726,14.8830242 135.720726,30.4907661 L135.720726,37.7488306 C117.575565,48.2672177 106.688468,67.8727016 106.688468,88.9254435 L106.688468,103.810282 C106.688468,118.695121 101.967823,130.659315 91.0807258,142.285282 C79.1020161,143.008258 69.6752419,152.803669 69.6752419,165.151089 L69.6752419,170.963347 C69.6752419,183.66496 79.8394355,193.829153 92.5410484,193.829153 L131.738226,193.829153 C133.921306,211.974315 149.883387,224.675927 168.028548,222.861411 C183.267581,221.046895 195.24629,209.068185 197.060806,193.829153 L235.887823,193.786621 C248.589435,193.786621 258.753629,183.622427 258.753629,170.920815 L258.753629,165.108556 C258.385065,152.789806 248.958145,142.979806 236.979435,142.256903 L236.979435,142.254435 Z" id="Fill-5"></path>
            </g>
            <g id="Group-6" transform="translate(87.500000, 137.500000)" fill="#FFFFFF">
                <path d="M33.0314516,119.387903 C21.0527419,87.4495161 22.8672581,51.8806452 38.1062903,21.4040323 C40.6437823,15.9604839 38.1062903,9.42532258 32.6627419,6.88790323 C27.5879032,4.35041129 21.4069355,6.51933871 18.5153226,11.6085484 C0.37016129,47.5301613 -1.81306452,89.2625806 12.348871,127.015403 C14.5319516,132.827661 20.6985484,135.365081 26.4962903,133.550565 C32.2943952,131.736048 35.2001613,124.83254 33.0314516,119.388992 L33.0314516,119.387903 Z" id="Fill-1"></path>
                <path d="M307.745565,11.6092742 C305.208073,6.16572581 298.672984,3.9825 293.229435,6.88862903 C287.785887,9.42612097 285.602661,15.9612097 288.50879,21.4047581 C303.747823,51.8828226 305.562339,87.4495161 293.583629,119.388629 C291.400548,124.832177 294.306605,131.367339 299.750081,133.536048 C305.193629,135.719129 311.72879,132.813073 313.8975,127.369597 C328.059073,89.2792742 325.890363,47.5454032 307.745202,11.6107258 L307.745565,11.6092742 Z" id="Fill-2"></path>
                <path d="M57.3423387,105.241935 C63.1545968,104.150395 66.783629,98.7067742 65.6920161,92.9090323 C63.5089355,80.2074194 63.8775,67.5058065 66.7835565,55.1743548 C68.2295081,49.3620968 64.6004758,43.5643548 58.8025887,42.1040323 C52.9903306,40.6580806 47.1925887,44.2871129 45.7322661,50.085 C42.1032339,65.3240323 41.7345242,81.3004839 44.2863145,96.8922581 C45.3637016,102.704516 51.1756694,106.333548 57.3424839,105.241935 L57.3423387,105.241935 Z" id="Fill-3"></path>
                <path d="M259.845968,54.8056452 C262.752024,67.1385484 263.106435,80.208871 260.937508,92.5403226 C259.845968,98.3525806 263.843565,104.150323 269.641379,105.241935 C275.453637,106.333476 281.251379,102.335879 282.342992,96.5380645 C285.249048,80.9303226 284.880484,64.9683871 281.251452,49.7308065 C280.159911,43.9185484 274.362097,39.9353226 268.549839,41.0269355 C262.737581,42.1184758 258.754355,47.9162903 259.845968,53.7285484 L259.845968,54.8058992 L259.845968,54.8056452 Z" id="Fill-4"></path>
                <path d="M236.979435,142.254435 C226.092339,130.644435 221.371694,118.665726 221.371694,103.779435 L221.371694,87.0942339 C221.371694,66.4116532 210.115887,47.5450403 192.339435,37.380121 L192.339435,30.4907661 C192.339435,14.8830242 179.637823,2.18141129 164.030081,2.18141129 C148.422339,2.18141129 135.720726,14.8830242 135.720726,30.4907661 L135.720726,37.7488306 C117.575565,48.2672177 106.688468,67.8727016 106.688468,88.9254435 L106.688468,103.810282 C106.688468,118.695121 101.967823,130.659315 91.0807258,142.285282 C79.1020161,143.008258 69.6752419,152.803669 69.6752419,165.151089 L69.6752419,170.963347 C69.6752419,183.66496 79.8394355,193.829153 92.5410484,193.829153 L131.738226,193.829153 C133.921306,211.974315 149.883387,224.675927 168.028548,222.861411 C183.267581,221.046895 195.24629,209.068185 197.060806,193.829153 L235.887823,193.786621 C248.589435,193.786621 258.753629,183.622427 258.753629,170.920815 L258.753629,165.108556 C258.385065,152.789806 248.958145,142.979806 236.979435,142.256903 L236.979435,142.254435 Z" id="Fill-5"></path>
            </g>
        </g>
    </g>
</svg>